<svg width="25" height="25" viewBox="0 0 25 25" fill="none" xmlns="http://www.w3.org/2000/svg">
<path fill-rule="evenodd" clip-rule="evenodd" d="M10.2693 15.1857C10.0773 15.1857 9.88528 15.1127 9.73928 14.9657C9.44628 14.6727 9.44628 14.1987 9.73928 13.9057L14.5313 9.11367C14.8243 8.82067 15.2983 8.82067 15.5913 9.11367C15.8843 9.40667 15.8843 9.88067 15.5913 10.1737L10.7993 14.9657C10.6533 15.1127 10.4613 15.1857 10.2693 15.1857Z" fill="#CD4545"/>
<path fill-rule="evenodd" clip-rule="evenodd" d="M15.0633 15.1885C14.8713 15.1885 14.6793 15.1155 14.5333 14.9685L9.73733 10.1715C9.44433 9.87853 9.44433 9.40453 9.73733 9.11153C10.0313 8.81853 10.5053 8.81853 10.7973 9.11153L15.5933 13.9085C15.8863 14.2015 15.8863 14.6755 15.5933 14.9685C15.4473 15.1155 15.2543 15.1885 15.0633 15.1885Z" fill="#CD4545"/>
<path fill-rule="evenodd" clip-rule="evenodd" d="M8.33175 3.54895C5.80175 3.54895 4.16675 5.28195 4.16675 7.96495V16.1329C4.16675 18.816 5.80175 20.549 8.33175 20.549H16.9997C19.5307 20.549 21.1667 18.816 21.1667 16.1329V7.96495C21.1667 5.28195 19.5307 3.54895 17.0007 3.54895H8.33175ZM16.9997 22.049H8.33175C4.94275 22.049 2.66675 19.6709 2.66675 16.1329V7.96495C2.66675 4.42695 4.94275 2.04895 8.33175 2.04895H17.0007C20.3897 2.04895 22.6667 4.42695 22.6667 7.96495V16.1329C22.6667 19.6709 20.3897 22.049 16.9997 22.049Z" fill="#CD4545"/>
</svg>
