<svg width="25" height="25" viewBox="0 0 25 25" fill="none" xmlns="http://www.w3.org/2000/svg">
<g opacity="0.5">
<mask id="mask0_40_5297" style="mask-type:luminance" maskUnits="userSpaceOnUse" x="3" y="3" width="21" height="19">
<path fill-rule="evenodd" clip-rule="evenodd" d="M3 3H23.0137V21.1855H3V3Z" fill="white"/>
</mask>
<g mask="url(#mask0_40_5297)">
<path fill-rule="evenodd" clip-rule="evenodd" d="M13.0128 4.5C12.5368 4.5 12.1128 4.746 11.8748 5.159L4.67677 17.724C4.44277 18.134 4.44477 18.623 4.68177 19.032C4.91877 19.441 5.34277 19.686 5.81577 19.686H20.1988C20.6708 19.686 21.0948 19.441 21.3318 19.032C21.5698 18.623 21.5718 18.134 21.3358 17.724L14.1508 5.159C13.9138 4.746 13.4898 4.5 13.0128 4.5ZM20.1988 21.186H5.81577C4.80177 21.186 3.89277 20.662 3.38377 19.784C2.87477 18.907 2.87177 17.858 3.37477 16.979L10.5748 4.413C11.0808 3.528 11.9918 3 13.0128 3H13.0138C14.0338 3 14.9468 3.529 15.4528 4.415L22.6388 16.979C23.1418 17.858 23.1388 18.907 22.6298 19.784C22.1208 20.662 21.2118 21.186 20.1988 21.186Z" fill="#4F5F8A"/>
</g>
<path fill-rule="evenodd" clip-rule="evenodd" d="M13.0039 14.164C12.5899 14.164 12.2539 13.828 12.2539 13.414V10.314C12.2539 9.90003 12.5899 9.56403 13.0039 9.56403C13.4179 9.56403 13.7539 9.90003 13.7539 10.314V13.414C13.7539 13.828 13.4179 14.164 13.0039 14.164Z" fill="#4F5F8A"/>
<path fill-rule="evenodd" clip-rule="evenodd" d="M13.006 17.499C12.453 17.499 12.001 17.052 12.001 16.499C12.001 15.946 12.444 15.499 12.996 15.499H13.006C13.559 15.499 14.006 15.946 14.006 16.499C14.006 17.052 13.559 17.499 13.006 17.499Z" fill="#4F5F8A"/>
</g>
</svg>
