<svg width="37" height="34" viewBox="0 0 37 34" fill="none" xmlns="http://www.w3.org/2000/svg">
<path d="M12.8923 16.1333L18.3462 10.6795C18.6846 10.341 18.6846 9.79229 18.3462 9.45384C18.0077 9.11539 17.459 9.11539 17.1205 9.45384L10.1872 16.3872C9.84873 16.7256 9.84873 17.2744 10.1872 17.6128L17.1205 24.5462C17.459 24.8846 18.0077 24.8846 18.3462 24.5462C18.6846 24.2077 18.6846 23.659 18.3462 23.3205L12.8923 17.8667H31.6C32.0787 17.8667 32.4667 17.4786 32.4667 17C32.4667 16.5214 32.0787 16.1333 31.6 16.1333H12.8923ZM6.46667 4.86667C6.46667 4.38802 6.07866 4 5.60001 4C5.12136 4 4.73334 4.38802 4.73334 4.86667V29.1333C4.73334 29.612 5.12136 30 5.60001 30C6.07866 30 6.46667 29.612 6.46667 29.1333V4.86667Z" fill="#E9EFFF"/>
</svg>
