<svg width="19" height="21" viewBox="0 0 19 21" fill="none" xmlns="http://www.w3.org/2000/svg">
<path fill-rule="evenodd" clip-rule="evenodd" d="M9.35133 20.0487C7.99633 20.0487 6.67533 20.0337 5.36833 20.0067C3.69633 19.9737 2.53933 18.8897 2.35033 17.1777C2.03533 14.3377 1.49633 7.64373 1.49133 7.57673C1.45733 7.16373 1.76533 6.80173 2.17833 6.76873C2.58533 6.75773 2.95333 7.04373 2.98633 7.45573C2.99133 7.52373 3.52933 14.1947 3.84133 17.0127C3.94833 17.9857 4.47333 18.4877 5.39933 18.5067C7.89933 18.5597 10.4503 18.5627 13.2003 18.5127C14.1843 18.4937 14.7163 18.0017 14.8263 17.0057C15.1363 14.2117 15.6763 7.52373 15.6823 7.45573C15.7153 7.04373 16.0803 6.75573 16.4893 6.76873C16.9023 6.80273 17.2103 7.16373 17.1773 7.57673C17.1713 7.64473 16.6293 14.3557 16.3173 17.1707C16.1233 18.9177 14.9693 19.9807 13.2273 20.0127C11.8943 20.0357 10.6083 20.0487 9.35133 20.0487Z" fill="#CD4545"/>
<path fill-rule="evenodd" clip-rule="evenodd" d="M17.8127 5.03809H0.854736C0.440736 5.03809 0.104736 4.70209 0.104736 4.28809C0.104736 3.87409 0.440736 3.53809 0.854736 3.53809H17.8127C18.2267 3.53809 18.5627 3.87409 18.5627 4.28809C18.5627 4.70209 18.2267 5.03809 17.8127 5.03809Z" fill="#CD4545"/>
<path fill-rule="evenodd" clip-rule="evenodd" d="M14.5451 5.03807C13.4071 5.03807 12.4191 4.22707 12.1951 3.11107L11.9521 1.89507C11.9011 1.71007 11.6901 1.54907 11.4501 1.54907H7.21707C6.97707 1.54907 6.76607 1.71007 6.70507 1.94107L6.47207 3.11107C6.24907 4.22707 5.26007 5.03807 4.12207 5.03807C3.70807 5.03807 3.37207 4.70207 3.37207 4.28807C3.37207 3.87407 3.70807 3.53807 4.12207 3.53807C4.54807 3.53807 4.91807 3.23407 5.00207 2.81607L5.24507 1.60007C5.49207 0.668072 6.29907 0.0490723 7.21707 0.0490723H11.4501C12.3681 0.0490723 13.1751 0.668072 13.4121 1.55507L13.6661 2.81607C13.7491 3.23407 14.1191 3.53807 14.5451 3.53807C14.9591 3.53807 15.2951 3.87407 15.2951 4.28807C15.2951 4.70207 14.9591 5.03807 14.5451 5.03807Z" fill="#CD4545"/>
</svg>
