<svg width="24" height="24" viewBox="0 0 24 24" fill="none" xmlns="http://www.w3.org/2000/svg">
<path d="M20.684 19.9579C20.8373 20.0025 20.9989 20.0107 21.1559 19.982C21.3129 19.9533 21.4611 19.8885 21.5888 19.7927C21.7165 19.6968 21.8201 19.5726 21.8914 19.4298C21.9628 19.287 22 19.1296 22 18.9699L21.999 13.2579C21.9987 13.0669 21.9452 12.8797 21.8446 12.7173C21.7441 12.5549 21.6003 12.4237 21.4294 12.3383C21.2585 12.2529 21.0673 12.2167 20.877 12.2338C20.6867 12.2509 20.505 12.3205 20.352 12.4349L18.71 13.6699L14.53 8.10195C14.2864 7.7779 13.9319 7.55507 13.5343 7.4761C13.1367 7.39713 12.7239 7.46758 12.375 7.67395L12.225 7.77395L8.888 10.2809L4.47 4.39595C4.05 3.83595 3.285 3.68895 2.693 4.02795L2.549 4.12294C2.28206 4.32351 2.09742 4.61452 2.02968 4.94146C1.96193 5.2684 2.01573 5.60883 2.181 5.89895L2.276 6.04294L7.353 12.8049C7.59647 13.1294 7.95119 13.3526 8.34909 13.4316C8.74699 13.5106 9.16005 13.4398 9.509 13.2329L9.658 13.1329L12.994 10.6269L16.516 15.3169L14.869 16.5539C14.7264 16.6615 14.6143 16.8042 14.5435 16.9682C14.4728 17.1321 14.4459 17.3116 14.4654 17.4891C14.485 17.6666 14.5504 17.836 14.6551 17.9806C14.7599 18.1252 14.9004 18.2401 15.063 18.3139L15.2 18.3639L20.685 19.9589L20.684 19.9579Z" fill="#E16A6A"/>
</svg>
