<svg width="24" height="24" viewBox="0 0 24 24" fill="none" xmlns="http://www.w3.org/2000/svg">
<path d="M20.684 4.04205C20.8373 3.99753 20.9988 3.98928 21.1559 4.01797C21.3129 4.04665 21.4611 4.11148 21.5888 4.20732C21.7165 4.30316 21.8201 4.42739 21.8914 4.57019C21.9628 4.71298 22 4.87042 22 5.03006L21.999 10.7421C21.9987 10.9331 21.9452 11.1203 21.8446 11.2827C21.7441 11.4451 21.6003 11.5763 21.4294 11.6617C21.2585 11.7471 21.0673 11.7833 20.877 11.7662C20.6867 11.7491 20.505 11.6795 20.352 11.5651L18.71 10.3301L14.53 15.8981C14.2864 16.2221 13.9319 16.4449 13.5343 16.5239C13.1367 16.6029 12.7239 16.5324 12.375 16.3261L12.225 16.2261L8.88799 13.7191L4.46999 19.6041C4.04999 20.1641 3.28499 20.3111 2.69299 19.9721L2.54899 19.8771C2.28205 19.6765 2.09741 19.3855 2.02967 19.0585C1.96193 18.7316 2.01573 18.3912 2.18099 18.1011L2.27599 17.9571L7.35299 11.1951C7.59646 10.8706 7.95118 10.6474 8.34908 10.5684C8.74698 10.4894 9.16004 10.5602 9.50899 10.7671L9.65799 10.8671L12.994 13.3731L16.516 8.68305L14.869 7.44605C14.7264 7.33853 14.6143 7.19579 14.5435 7.03184C14.4728 6.86789 14.4459 6.68837 14.4654 6.51088C14.485 6.33339 14.5504 6.16403 14.6551 6.01943C14.7599 5.87483 14.9004 5.75995 15.063 5.68605L15.2 5.63605L20.685 4.04105L20.684 4.04205Z" fill="#5CFFB0"/>
</svg>
