<svg width="25" height="25" viewBox="0 0 25 25" fill="none" xmlns="http://www.w3.org/2000/svg">
<path d="M13 22C18.5229 22 23 17.5229 23 12C23 6.47716 18.5229 2 13 2C7.47716 2 3 6.47716 3 12C3 17.5229 7.47716 22 13 22Z" stroke="#E0A800" stroke-width="1.3"/>
<path d="M9 9.5C9 9.03406 9 8.80109 9.07612 8.61732C9.17761 8.37229 9.37229 8.17761 9.61732 8.07612C9.80109 8 10.0341 8 10.5 8C10.9659 8 11.1989 8 11.3827 8.07612C11.6277 8.17761 11.8224 8.37229 11.9239 8.61732C12 8.80109 12 9.03406 12 9.5V14.5C12 14.9659 12 15.1989 11.9239 15.3827C11.8224 15.6277 11.6277 15.8224 11.3827 15.9239C11.1989 16 10.9659 16 10.5 16C10.0341 16 9.80109 16 9.61732 15.9239C9.37229 15.8224 9.17761 15.6277 9.07612 15.3827C9 15.1989 9 14.9659 9 14.5V9.5Z" stroke="#E0A800" stroke-width="1.3"/>
<path d="M14 9.5C14 9.03406 14 8.80109 14.0761 8.61732C14.1776 8.37229 14.3723 8.17761 14.6173 8.07612C14.8011 8 15.0341 8 15.5 8C15.9659 8 16.1989 8 16.3827 8.07612C16.6277 8.17761 16.8224 8.37229 16.9239 8.61732C17 8.80109 17 9.03406 17 9.5V14.5C17 14.9659 17 15.1989 16.9239 15.3827C16.8224 15.6277 16.6277 15.8224 16.3827 15.9239C16.1989 16 15.9659 16 15.5 16C15.0341 16 14.8011 16 14.6173 15.9239C14.3723 15.8224 14.1776 15.6277 14.0761 15.3827C14 15.1989 14 14.9659 14 14.5V9.5Z" stroke="#E0A800" stroke-width="1.3"/>
</svg>
