<svg width="24" height="24" viewBox="0 0 24 24" fill="none" xmlns="http://www.w3.org/2000/svg">
<g clip-path="url(#clip0_28_837)">
<path d="M7.99011 18.0399C8.76885 18.0399 9.40014 18.7026 9.40014 19.5199C9.40014 20.3372 8.76885 20.9999 7.99011 20.9999C7.21137 20.9999 6.58008 20.3372 6.58008 19.5199C6.58008 18.7026 7.21137 18.0399 7.99011 18.0399Z" stroke="#ABBAE0" stroke-width="1.3"/>
<path d="M16.4502 18.04C17.2289 18.04 17.8602 18.7026 17.8602 19.52C17.8602 20.3374 17.2289 21 16.4502 21C15.6715 21 15.0402 20.3374 15.0402 19.52C15.0402 18.7026 15.6715 18.04 16.4502 18.04Z" stroke="#ABBAE0" stroke-width="1.3"/>
<path d="M3.05379 2.54203C2.68646 2.40647 2.28399 2.60914 2.15485 2.99469C2.0257 3.38024 2.21879 3.80268 2.58611 3.93823L3.05379 2.54203ZM20.3587 10.031L21.0491 10.1804L21.05 10.1759L20.3587 10.031ZM6.30562 9.90991V7.22459H4.89559V9.90991H6.30562ZM3.29933 2.63264L3.05379 2.54203L2.58611 3.93823L2.83165 4.02884L3.29933 2.63264ZM11.2214 16.3133H16.2062V14.8333H11.2214V16.3133ZM6.30562 7.22459C6.30562 6.52687 6.30658 5.94465 6.25778 5.47152C6.20727 4.98176 6.09785 4.53508 5.83278 4.12795L4.6686 4.96295C4.75345 5.09328 4.81897 5.27228 4.85594 5.63078C4.89463 6.00592 4.89559 6.49452 4.89559 7.22459H6.30562ZM2.83165 4.02884C3.45922 4.26043 3.87165 4.4139 4.17514 4.5702C4.46017 4.71699 4.58582 4.83581 4.6686 4.96295L5.83278 4.12795C5.56564 3.71764 5.21046 3.45485 4.79626 3.24154C4.40049 3.03772 3.89529 2.85256 3.29933 2.63264L2.83165 4.02884ZM4.89559 9.90991C4.89559 11.343 4.9084 12.3764 5.03723 13.166C5.17477 14.0089 5.44939 14.6124 5.96286 15.1808L6.9861 14.1626C6.68514 13.8294 6.52281 13.5031 6.42702 12.9161C6.32253 12.2757 6.30562 11.379 6.30562 9.90991H4.89559ZM11.2214 14.8333C9.88955 14.8333 8.96545 14.8315 8.26921 14.7279C7.59727 14.6279 7.24229 14.4462 6.9861 14.1626L5.96286 15.1808C6.5211 15.7989 7.22876 16.0679 8.07124 16.1932C8.88941 16.3151 9.93153 16.3133 11.2214 16.3133V14.8333ZM5.6006 7.05848H17.0037V5.5785H5.6006V7.05848ZM19.6681 9.88164L19.1984 12.274L20.5794 12.5728L21.0491 10.1804L19.6681 9.88164ZM17.0037 7.05848C17.8088 7.05848 18.5172 7.05947 19.0764 7.12507C19.3542 7.15767 19.5622 7.20296 19.7083 7.25685C19.86 7.3128 19.8841 7.35573 19.872 7.33907L20.9896 6.43667C20.7687 6.13533 20.4581 5.96472 20.1757 5.86055C19.8876 5.7543 19.5618 5.69282 19.2331 5.65425C18.579 5.57751 17.7826 5.5785 17.0037 5.5785V7.05848ZM21.05 10.1759C21.2091 9.3393 21.3442 8.63736 21.3773 8.07511C21.4112 7.49673 21.3485 6.92644 20.9896 6.43667L19.872 7.33907C19.9303 7.41869 19.9947 7.56204 19.9699 7.98393C19.9441 8.42195 19.8345 9.0069 19.6673 9.88618L21.05 10.1759ZM16.2062 16.3133C16.9222 16.3133 17.5231 16.3146 18.0075 16.2523C18.511 16.1877 18.9703 16.0463 19.3713 15.7033L18.4805 14.5561C18.3628 14.6567 18.1959 14.7371 17.8362 14.7834C17.4572 14.832 16.9576 14.8333 16.2062 14.8333V16.3133ZM19.1984 12.274C19.0467 13.0464 18.9446 13.5598 18.8227 13.9396C18.7069 14.3 18.5982 14.4554 18.4805 14.5561L19.3713 15.7033C19.7722 15.3604 19.9968 14.9168 20.1589 14.4122C20.3148 13.9268 20.4348 13.3088 20.5794 12.5728L19.1984 12.274Z" fill="#ABBAE0"/>
<path d="M9.87012 9.16003L10.3666 12.2363" stroke="#ABBAE0" stroke-width="1.3" stroke-linecap="round"/>
<path d="M15.5368 9.16003L15.0403 12.2363" stroke="#ABBAE0" stroke-width="1.3" stroke-linecap="round"/>
</g>
<defs>
<clipPath id="clip0_28_837">
<rect width="19.5" height="20.5001" fill="white" transform="translate(2 1.49994)"/>
</clipPath>
</defs>
</svg>
