<svg width="25" height="25" viewBox="0 0 25 25" fill="none" xmlns="http://www.w3.org/2000/svg">
<path fill-rule="evenodd" clip-rule="evenodd" d="M8.665 3.5C6.135 3.5 4.5 5.233 4.5 7.916V16.084C4.5 18.767 6.135 20.5 8.665 20.5H17.333C19.864 20.5 21.5 18.767 21.5 16.084V7.916C21.5 5.233 19.864 3.5 17.334 3.5H8.665ZM17.333 22H8.665C5.276 22 3 19.622 3 16.084V7.916C3 4.378 5.276 2 8.665 2H17.334C20.723 2 23 4.378 23 7.916V16.084C23 19.622 20.723 22 17.333 22Z" fill="#5CFFB0"/>
<path fill-rule="evenodd" clip-rule="evenodd" d="M11.8134 15.123C11.6224 15.123 11.4294 15.05 11.2834 14.903L8.90945 12.53C8.61645 12.237 8.61645 11.763 8.90945 11.47C9.20245 11.177 9.67645 11.177 9.96945 11.47L11.8134 13.312L16.0294 9.09701C16.3224 8.80401 16.7964 8.80401 17.0894 9.09701C17.3824 9.39001 17.3824 9.86401 17.0894 10.157L12.3434 14.903C12.1974 15.05 12.0054 15.123 11.8134 15.123Z" fill="#5CFFB0"/>
</svg>
