<svg width="21" height="17" viewBox="0 0 21 17" fill="none" xmlns="http://www.w3.org/2000/svg">
<path fill-rule="evenodd" clip-rule="evenodd" d="M10.3331 5.63757C9.00312 5.63757 7.92212 6.71957 7.92212 8.04957C7.92212 9.37857 9.00312 10.4596 10.3331 10.4596C11.6631 10.4596 12.7451 9.37857 12.7451 8.04957C12.7451 6.71957 11.6631 5.63757 10.3331 5.63757ZM10.3331 11.9596C8.17612 11.9596 6.42212 10.2056 6.42212 8.04957C6.42212 5.89257 8.17612 4.13757 10.3331 4.13757C12.4901 4.13757 14.2451 5.89257 14.2451 8.04957C14.2451 10.2056 12.4901 11.9596 10.3331 11.9596Z" fill="#E9EFFF"/>
<mask id="mask0_40_5036" style="mask-type:luminance" maskUnits="userSpaceOnUse" x="0" y="-1" width="21" height="18">
<path fill-rule="evenodd" clip-rule="evenodd" d="M0.33374 -0.00354004H20.3336V16.1015H0.33374V-0.00354004Z" fill="white"/>
</mask>
<g mask="url(#mask0_40_5036)">
<path fill-rule="evenodd" clip-rule="evenodd" d="M1.90349 8.04872C3.76349 12.1577 6.89649 14.6007 10.3335 14.6017C13.7705 14.6007 16.9035 12.1577 18.7635 8.04872C16.9035 3.94072 13.7705 1.49772 10.3335 1.49672C6.89749 1.49772 3.76349 3.94072 1.90349 8.04872ZM10.3355 16.1017H10.3315H10.3305C6.19449 16.0987 2.48049 13.1997 0.39449 8.34472C0.31349 8.15572 0.31349 7.94172 0.39449 7.75272C2.48049 2.89872 6.19549 -0.00027832 10.3305 -0.00327832C10.3325 -0.00427832 10.3325 -0.00427832 10.3335 -0.00327832C10.3355 -0.00427832 10.3355 -0.00427832 10.3365 -0.00327832C14.4725 -0.00027832 18.1865 2.89872 20.2725 7.75272C20.3545 7.94172 20.3545 8.15572 20.2725 8.34472C18.1875 13.1997 14.4725 16.0987 10.3365 16.1017H10.3355Z" fill="#E9EFFF"/>
</g>
</svg>
